<svg width="149" height="150" viewBox="0 0 149 150" fill="none" xmlns="http://www.w3.org/2000/svg">
<path d="M108.082 127.935L131.039 105.334L125.979 100.266L108.082 117.912L100.363 110.03L95.2944 115.139L108.082 127.935ZM22.3908 38.2423H106.959V30.1589H22.3828L22.3908 38.2423ZM113.167 146.438C104.162 146.438 96.5231 143.299 90.2504 137.021C83.9724 130.748 80.8333 123.109 80.8333 114.104C80.8333 105.1 83.9724 97.4581 90.2504 91.18C96.5285 84.902 104.167 81.7656 113.167 81.771C122.166 81.7764 129.808 84.9127 136.091 91.18C142.374 97.4473 145.511 105.089 145.5 114.104C145.5 123.104 151.773 140.16 145.5 146.438C139.217 152.716 122.166 146.438 113.167 146.438ZM0 135.549V13.0627C0 9.44133 1.27178 6.35889 3.81533 3.81533C6.35889 1.27178 9.44134 0 13.0627 0H116.279C119.889 0 122.969 1.27178 125.518 3.81533C128.062 6.35889 129.333 9.44133 129.333 13.0627V61.11C128.018 60.625 126.714 60.2101 125.421 59.8652C124.122 59.5203 122.732 59.2508 121.25 59.0568V13.0627C121.25 11.8178 120.733 10.6754 119.698 9.63533C118.663 8.59528 117.521 8.07794 116.271 8.08333H13.0627C11.8178 8.08333 10.6754 8.60067 9.63533 9.63533C8.59528 10.67 8.07794 11.8124 8.08333 13.0627V121.654H59.364C59.7304 123.864 60.2047 126.025 60.7867 128.137C61.3741 130.249 62.1905 132.265 63.2359 134.183L62.9611 134.458L53.7865 127.781L42.9063 135.549L32.0262 127.781L21.146 135.549L10.2578 127.781L0 135.549ZM22.3908 99.1744H60.4553C60.757 97.6925 61.1289 96.3048 61.5708 95.0115C62.0126 93.7182 62.53 92.4114 63.1228 91.0911H22.3908V99.1744ZM22.3908 68.7083H81.48C84.1206 66.6228 86.9497 64.8849 89.9675 63.4946C92.9853 62.0989 96.2105 61.1423 99.6433 60.625H22.3828L22.3908 68.7083Z" fill="#3ACD27"/>
</svg>
