<svg width="40" height="40" viewBox="0 0 40 40" fill="none" xmlns="http://www.w3.org/2000/svg">
<rect x="0.5" y="0.5" width="39" height="39" rx="19.5" stroke="#E2E2E2"/>
<path d="M19.5 26L21 22L16.118 20L19.118 16.5L22.118 19H25.618M22 15C22.5304 15 23.0391 14.7893 23.4142 14.4142C23.7893 14.0391 24 13.5304 24 13C24 12.4696 23.7893 11.9609 23.4142 11.5858C23.0391 11.2107 22.5304 11 22 11C21.4696 11 20.9609 11.2107 20.5858 11.5858C20.2107 11.9609 20 12.4696 20 13C20 13.5304 20.2107 14.0391 20.5858 14.4142C20.9609 14.7893 21.4696 15 22 15ZM26 29C26.7956 29 27.5587 28.6839 28.1213 28.1213C28.6839 27.5587 29 26.7956 29 26C29 25.2044 28.6839 24.4413 28.1213 23.8787C27.5587 23.3161 26.7956 23 26 23C25.2044 23 24.4413 23.3161 23.8787 23.8787C23.3161 24.4413 23 25.2044 23 26C23 26.7956 23.3161 27.5587 23.8787 28.1213C24.4413 28.6839 25.2044 29 26 29ZM14 29C14.7956 29 15.5587 28.6839 16.1213 28.1213C16.6839 27.5587 17 26.7956 17 26C17 25.2044 16.6839 24.4413 16.1213 23.8787C15.5587 23.3161 14.7956 23 14 23C13.2044 23 12.4413 23.3161 11.8787 23.8787C11.3161 24.4413 11 25.2044 11 26C11 26.7956 11.3161 27.5587 11.8787 28.1213C12.4413 28.6839 13.2044 29 14 29Z" stroke="#857878" stroke-linecap="round" stroke-linejoin="round"/>
</svg>
