<svg width="40" height="40" viewBox="0 0 40 40" fill="none" xmlns="http://www.w3.org/2000/svg">
<path d="M0 20C0 8.95431 8.95431 0 20 0C31.0457 0 40 8.95431 40 20C40 31.0457 31.0457 40 20 40C8.95431 40 0 31.0457 0 20Z" fill="#F6FFF5"/>
<path d="M27.4942 20.3991C27.4161 21.8459 26.9206 23.2391 26.0676 24.4103C25.2146 25.5815 24.0406 26.4805 22.6876 26.9987C21.3345 27.5169 19.8603 27.6321 18.4432 27.3304C17.0261 27.0287 15.7267 26.3229 14.7021 25.2984C13.6775 24.274 12.9716 22.9746 12.6697 21.5575C12.3678 20.1405 12.4829 18.6662 13.001 17.3131C13.519 15.96 14.4179 14.786 15.589 13.9328C16.7601 13.0797 18.1533 12.584 19.6001 12.5058C19.9376 12.4875 20.1142 12.8891 19.9351 13.175C19.3358 14.1338 19.0792 15.2674 19.2071 16.3908C19.3351 17.5142 19.84 18.561 20.6395 19.3605C21.439 20.16 22.4859 20.6649 23.6093 20.7929C24.7327 20.9208 25.8663 20.6642 26.8251 20.065C27.1117 19.8858 27.5126 20.0616 27.4942 20.3991Z" stroke="#3ACD27" stroke-width="1.66667" stroke-linecap="round" stroke-linejoin="round"/>
</svg>
