<svg width="51" height="71" viewBox="0 0 51 71" fill="none" xmlns="http://www.w3.org/2000/svg">
<path d="M6.44444 23.1547V38.9795L1 48.4744V57.9693H50V48.4744L44.5556 38.9795V23.1547C44.5556 20.2453 44.0627 17.3644 43.105 14.6765C42.1474 11.9885 40.7438 9.54623 38.9743 7.48897C37.2048 5.43171 35.1042 3.79981 32.7922 2.68643C30.4803 1.57305 28.0024 1 25.5 1C22.9976 1 20.5197 1.57305 18.2078 2.68643C15.8958 3.79981 13.7952 5.43171 12.0257 7.48897C10.2562 9.54623 8.85259 11.9885 7.89496 14.6765C6.93733 17.3644 6.44444 20.2453 6.44444 23.1547ZM15.9722 57.9693H35.0278C35.0278 59.424 34.7813 60.8645 34.3025 62.2084C33.8237 63.5524 33.1219 64.7736 32.2372 65.8022C31.3524 66.8308 30.3021 67.6468 29.1461 68.2035C27.9902 68.7602 26.7512 69.0467 25.5 69.0467C24.2488 69.0467 23.0098 68.7602 21.8539 68.2035C20.6979 67.6468 19.6476 66.8308 18.7628 65.8022C17.8781 64.7736 17.1763 63.5524 16.6975 62.2084C16.2187 60.8645 15.9722 59.424 15.9722 57.9693Z" stroke="#B2A5A5" stroke-width="2" stroke-linecap="square"/>
</svg>
