<svg width="20" height="20" viewBox="0 0 20 20" fill="none" xmlns="http://www.w3.org/2000/svg">
<path d="M6.15 0.75H2.35C1.92565 0.75 1.51869 0.918571 1.21863 1.21863C0.918571 1.51869 0.75 1.92565 0.75 2.35V6.15C0.75 6.36011 0.791385 6.56817 0.871793 6.76229C0.9522 6.95641 1.07006 7.1328 1.21863 7.28137C1.3672 7.42994 1.54359 7.5478 1.73771 7.62821C1.93183 7.70861 2.13988 7.75 2.35 7.75H6.15C6.36011 7.75 6.56817 7.70861 6.76229 7.62821C6.95641 7.5478 7.1328 7.42994 7.28137 7.28137C7.42994 7.1328 7.5478 6.95641 7.62821 6.76229C7.70861 6.56817 7.75 6.36011 7.75 6.15V2.35C7.75 1.92565 7.58143 1.51869 7.28137 1.21863C6.98131 0.918571 6.57435 0.75 6.15 0.75ZM17.15 0.75H13.35C12.9257 0.75 12.5187 0.918571 12.2186 1.21863C11.9186 1.51869 11.75 1.92565 11.75 2.35V6.15C11.75 6.57435 11.9186 6.98131 12.2186 7.28137C12.5187 7.58143 12.9257 7.75 13.35 7.75H17.15C17.5743 7.75 17.9813 7.58143 18.2814 7.28137C18.5814 6.98131 18.75 6.57435 18.75 6.15V2.35C18.75 1.92565 18.5814 1.51869 18.2814 1.21863C17.9813 0.918571 17.5743 0.75 17.15 0.75ZM6.15 11.75H2.35C1.92565 11.75 1.51869 11.9186 1.21863 12.2186C0.918571 12.5187 0.75 12.9257 0.75 13.35V17.15C0.75 17.5743 0.918571 17.9813 1.21863 18.2814C1.51869 18.5814 1.92565 18.75 2.35 18.75H6.15C6.57435 18.75 6.98131 18.5814 7.28137 18.2814C7.58143 17.9813 7.75 17.5743 7.75 17.15V13.35C7.75 12.9257 7.58143 12.5187 7.28137 12.2186C6.98131 11.9186 6.57435 11.75 6.15 11.75ZM17.15 11.75H13.35C12.9257 11.75 12.5187 11.9186 12.2186 12.2186C11.9186 12.5187 11.75 12.9257 11.75 13.35V17.15C11.75 17.5743 11.9186 17.9813 12.2186 18.2814C12.5187 18.5814 12.9257 18.75 13.35 18.75H17.15C17.5743 18.75 17.9813 18.5814 18.2814 18.2814C18.5814 17.9813 18.75 17.5743 18.75 17.15V13.35C18.75 12.9257 18.5814 12.5187 18.2814 12.2186C17.9813 11.9186 17.5743 11.75 17.15 11.75Z" stroke="#181616" stroke-width="1.5" stroke-miterlimit="10" stroke-linejoin="round"/>
</svg>
