<svg width="18" height="13" viewBox="0 0 18 13" fill="none" xmlns="http://www.w3.org/2000/svg">
<path d="M0 0.75C0 0.551088 0.0790175 0.360322 0.21967 0.21967C0.360322 0.0790175 0.551088 0 0.75 0H1.75C1.94891 0 2.13968 0.0790175 2.28033 0.21967C2.42098 0.360322 2.5 0.551088 2.5 0.75C2.5 0.948912 2.42098 1.13968 2.28033 1.28033C2.13968 1.42098 1.94891 1.5 1.75 1.5H0.75C0.551088 1.5 0.360322 1.42098 0.21967 1.28033C0.0790175 1.13968 0 0.948912 0 0.75ZM4 0.75C4 0.551088 4.07902 0.360322 4.21967 0.21967C4.36032 0.0790175 4.55109 0 4.75 0H16.75C16.9489 0 17.1397 0.0790175 17.2803 0.21967C17.421 0.360322 17.5 0.551088 17.5 0.75C17.5 0.948912 17.421 1.13968 17.2803 1.28033C17.1397 1.42098 16.9489 1.5 16.75 1.5H4.75C4.55109 1.5 4.36032 1.42098 4.21967 1.28033C4.07902 1.13968 4 0.948912 4 0.75ZM0 6.25C0 6.05109 0.0790175 5.86032 0.21967 5.71967C0.360322 5.57902 0.551088 5.5 0.75 5.5H1.75C1.94891 5.5 2.13968 5.57902 2.28033 5.71967C2.42098 5.86032 2.5 6.05109 2.5 6.25C2.5 6.44891 2.42098 6.63968 2.28033 6.78033C2.13968 6.92098 1.94891 7 1.75 7H0.75C0.551088 7 0.360322 6.92098 0.21967 6.78033C0.0790175 6.63968 0 6.44891 0 6.25ZM4 6.25C4 6.05109 4.07902 5.86032 4.21967 5.71967C4.36032 5.57902 4.55109 5.5 4.75 5.5H16.75C16.9489 5.5 17.1397 5.57902 17.2803 5.71967C17.421 5.86032 17.5 6.05109 17.5 6.25C17.5 6.44891 17.421 6.63968 17.2803 6.78033C17.1397 6.92098 16.9489 7 16.75 7H4.75C4.55109 7 4.36032 6.92098 4.21967 6.78033C4.07902 6.63968 4 6.44891 4 6.25ZM0 11.75C0 11.5511 0.0790175 11.3603 0.21967 11.2197C0.360322 11.079 0.551088 11 0.75 11H1.75C1.94891 11 2.13968 11.079 2.28033 11.2197C2.42098 11.3603 2.5 11.5511 2.5 11.75C2.5 11.9489 2.42098 12.1397 2.28033 12.2803C2.13968 12.421 1.94891 12.5 1.75 12.5H0.75C0.551088 12.5 0.360322 12.421 0.21967 12.2803C0.0790175 12.1397 0 11.9489 0 11.75ZM4 11.75C4 11.5511 4.07902 11.3603 4.21967 11.2197C4.36032 11.079 4.55109 11 4.75 11H16.75C16.9489 11 17.1397 11.079 17.2803 11.2197C17.421 11.3603 17.5 11.5511 17.5 11.75C17.5 11.9489 17.421 12.1397 17.2803 12.2803C17.1397 12.421 16.9489 12.5 16.75 12.5H4.75C4.55109 12.5 4.36032 12.421 4.21967 12.2803C4.07902 12.1397 4 11.9489 4 11.75Z" fill="#463C3C"/>
</svg>
