<svg width="40" height="40" viewBox="0 0 40 40" fill="none" xmlns="http://www.w3.org/2000/svg">
<path d="M0 20C0 8.95431 8.95431 0 20 0C31.0457 0 40 8.95431 40 20C40 31.0457 31.0457 40 20 40C8.95431 40 0 31.0457 0 20Z" fill="#F6FFF5"/>
<g clip-path="url(#clip0_96_1528)">
<path d="M20.0001 28.3334C24.6025 28.3334 28.3334 24.6024 28.3334 20C28.3334 15.3976 24.6025 11.6667 20.0001 11.6667C15.3977 11.6667 11.6667 15.3976 11.6667 20C11.6667 24.6024 15.3977 28.3334 20.0001 28.3334Z" stroke="#3ACD27" stroke-width="1.66667" stroke-linecap="round" stroke-linejoin="round"/>
<path d="M17.575 17.5C17.7709 16.943 18.1576 16.4734 18.6666 16.1743C19.1756 15.8751 19.774 15.7658 20.3559 15.8656C20.9378 15.9654 21.4656 16.2679 21.8458 16.7196C22.2261 17.1713 22.4342 17.7429 22.4333 18.3333C22.4333 20 19.9333 20.8333 19.9333 20.8333" stroke="#3ACD27" stroke-width="1.66667" stroke-linecap="round" stroke-linejoin="round"/>
<path d="M20 24.1667H20.0083" stroke="#3ACD27" stroke-width="1.66667" stroke-linecap="round" stroke-linejoin="round"/>
</g>
<defs>
<clipPath id="clip0_96_1528">
<rect width="20" height="20" fill="white" transform="translate(10 10)"/>
</clipPath>
</defs>
</svg>
