<svg width="40" height="40" viewBox="0 0 40 40" fill="none" xmlns="http://www.w3.org/2000/svg">
<path d="M0 20C0 8.95431 8.95431 0 20 0C31.0457 0 40 8.95431 40 20C40 31.0457 31.0457 40 20 40C8.95431 40 0 31.0457 0 20Z" fill="#4CDD38"/>
<path d="M18.5566 27.5C18.7029 27.7533 18.9133 27.9637 19.1667 28.11C19.42 28.2563 19.7074 28.3333 20 28.3333C20.2925 28.3333 20.5799 28.2563 20.8333 28.11C21.0866 27.9637 21.297 27.7533 21.4433 27.5" stroke="white" stroke-width="1.66667" stroke-linecap="round" stroke-linejoin="round"/>
<path d="M12.7183 22.7717C12.6095 22.891 12.5376 23.0394 12.5115 23.1988C12.4855 23.3582 12.5063 23.5217 12.5714 23.6695C12.6366 23.8173 12.7433 23.943 12.8785 24.0312C13.0138 24.1195 13.1718 24.1666 13.3333 24.1667H26.6667C26.8282 24.1667 26.9862 24.1199 27.1216 24.0318C27.2569 23.9437 27.3637 23.8181 27.4291 23.6704C27.4944 23.5227 27.5154 23.3592 27.4895 23.1998C27.4637 23.0404 27.392 22.892 27.2833 22.7725C26.175 21.63 25 20.4158 25 16.6667C25 15.3406 24.4732 14.0688 23.5355 13.1311C22.5979 12.1935 21.3261 11.6667 20 11.6667C18.6739 11.6667 17.4021 12.1935 16.4645 13.1311C15.5268 14.0688 15 15.3406 15 16.6667C15 20.4158 13.8242 21.63 12.7183 22.7717Z" stroke="white" stroke-width="1.66667" stroke-linecap="round" stroke-linejoin="round"/>
</svg>
