<svg width="19" height="22" viewBox="0 0 19 22" fill="none" xmlns="http://www.w3.org/2000/svg">
<path d="M2.83333 7.41667V12L1 14.75V17.5H17.5V14.75L15.6667 12V7.41667C15.6667 6.57402 15.5007 5.73962 15.1782 4.96111C14.8558 4.18261 14.3831 3.47524 13.7873 2.8794C13.1914 2.28356 12.4841 1.81091 11.7056 1.48844C10.927 1.16597 10.0926 1 9.25 1C8.40735 1 7.57295 1.16597 6.79445 1.48844C6.01594 1.81091 5.30857 2.28356 4.71273 2.8794C4.11689 3.47524 3.64424 4.18261 3.32177 4.96111C2.99931 5.73962 2.83333 6.57402 2.83333 7.41667ZM6.04167 17.5H12.4583C12.4583 17.9213 12.3753 18.3385 12.2141 18.7278C12.0529 19.117 11.8166 19.4707 11.5186 19.7686C11.2207 20.0666 10.867 20.3029 10.4778 20.4641C10.0885 20.6253 9.67132 20.7083 9.25 20.7083C8.82868 20.7083 8.41148 20.6253 8.02222 20.4641C7.63297 20.3029 7.27929 20.0666 6.98137 19.7686C6.68344 19.4707 6.44712 19.117 6.28589 18.7278C6.12465 18.3385 6.04167 17.9213 6.04167 17.5Z" stroke="#181616" stroke-width="2" stroke-linecap="square"/>
</svg>
