<svg width="41" height="40" viewBox="0 0 41 40" fill="none" xmlns="http://www.w3.org/2000/svg">
<rect x="0.5" y="0.5" width="40" height="39" rx="19.5" stroke="#E2E2E2"/>
<g clip-path="url(#clip0_236_1286)">
<path d="M19 19.5H20.5V20.5H19V19.5Z" fill="black"/>
<path d="M24.725 18.085C23.8382 16.6339 22.6285 15.4071 21.19 14.5C20.5255 14.0788 19.7679 13.8267 18.9835 13.7657C18.1991 13.7047 17.4117 13.8366 16.69 14.15C16.0588 14.4477 15.5095 14.8947 15.0896 15.4522C14.6697 16.0097 14.3918 16.6611 14.28 17.35C14.24 17.585 14.21 17.81 14.18 18.03C13.7119 18.1059 13.2859 18.3456 12.9782 18.7065C12.6705 19.0673 12.501 19.5258 12.5 20V23.065C12.5 23.3302 12.6054 23.5846 12.7929 23.7721C12.9804 23.9596 13.2348 24.065 13.5 24.065V20C13.5 19.7348 13.6054 19.4804 13.7929 19.2929C13.9804 19.1054 14.2348 19 14.5 19H23.865C24.8287 19.0013 25.7525 19.3847 26.4339 20.0661C27.1153 20.7475 27.4987 21.6713 27.5 22.635V23H26.5C26.2888 22.485 25.8955 22.0659 25.3949 21.8225C24.8944 21.5791 24.3218 21.5285 23.7864 21.6803C23.2509 21.8322 22.7901 22.1759 22.4919 22.6458C22.1937 23.1157 22.079 23.679 22.1696 24.2281C22.2602 24.7773 22.5498 25.2738 22.9832 25.623C23.4165 25.9722 23.9633 26.1497 24.5192 26.1215C25.075 26.0933 25.601 25.8614 25.9968 25.4701C26.3926 25.0788 26.6304 24.5555 26.665 24H27.5C27.7652 24 28.0196 23.8946 28.2071 23.7071C28.3946 23.5196 28.5 23.2652 28.5 23V22.635C28.498 21.556 28.12 20.5114 27.431 19.6809C26.742 18.8505 25.7851 18.2861 24.725 18.085ZM17 18H14.965C14.965 17.845 15.01 17.685 15.04 17.5C15.1264 16.9507 15.3518 16.4327 15.6949 15.9951C16.0379 15.5575 16.4872 15.215 17 15V18ZM18 18V14.79C18.9335 14.6688 19.8802 14.8737 20.68 15.37C21.7719 16.0501 22.7142 16.9448 23.45 18H18ZM24.4 25.19C24.1528 25.19 23.9111 25.1167 23.7055 24.9793C23.5 24.842 23.3398 24.6468 23.2452 24.4183C23.1505 24.1899 23.1258 23.9386 23.174 23.6961C23.2222 23.4537 23.3413 23.2309 23.5161 23.0561C23.6909 22.8813 23.9137 22.7622 24.1561 22.714C24.3986 22.6658 24.6499 22.6905 24.8784 22.7851C25.1068 22.8798 25.302 23.04 25.4393 23.2455C25.5767 23.4511 25.65 23.6928 25.65 23.94C25.65 24.2715 25.5183 24.5895 25.2839 24.8239C25.0495 25.0583 24.7315 25.19 24.4 25.19Z" fill="#857878"/>
<path d="M18.585 23C18.3738 22.4851 17.9805 22.0659 17.4799 21.8225C16.9794 21.5791 16.4068 21.5285 15.8714 21.6803C15.3359 21.8322 14.8751 22.1759 14.5769 22.6458C14.2787 23.1157 14.164 23.679 14.2546 24.2281C14.3452 24.7773 14.6348 25.2738 15.0682 25.623C15.5015 25.9723 16.0483 26.1497 16.6042 26.1215C17.16 26.0933 17.686 25.8614 18.0818 25.4701C18.4776 25.0788 18.7155 24.5555 18.75 24H21.4V23.875C21.3901 23.58 21.4238 23.2852 21.5 23H18.585ZM16.5 25.19C16.2528 25.19 16.0111 25.1167 15.8055 24.9793C15.6 24.842 15.4398 24.6468 15.3452 24.4184C15.2505 24.1899 15.2258 23.9386 15.274 23.6961C15.3223 23.4537 15.4413 23.2309 15.6161 23.0561C15.7909 22.8813 16.0137 22.7623 16.2561 22.714C16.4986 22.6658 16.7499 22.6905 16.9784 22.7852C17.2068 22.8798 17.402 23.04 17.5393 23.2455C17.6767 23.4511 17.75 23.6928 17.75 23.94C17.75 24.2715 17.6183 24.5895 17.3839 24.8239C17.1495 25.0583 16.8315 25.19 16.5 25.19Z" fill="#857878"/>
</g>
<defs>
<clipPath id="clip0_236_1286">
<rect width="18" height="18" fill="white" transform="translate(11.5 11)"/>
</clipPath>
</defs>
</svg>
