<svg width="40" height="40" viewBox="0 0 40 40" fill="none" xmlns="http://www.w3.org/2000/svg">
<rect x="0.5" y="0.5" width="39" height="39" rx="19.5" stroke="#E2E2E2"/>
<path d="M19.5 15C19.3674 15 19.2402 15.0527 19.1464 15.1464C19.0527 15.2402 19 15.3674 19 15.5C19 15.6326 19.0527 15.7598 19.1464 15.8536C19.2402 15.9473 19.3674 16 19.5 16H20.5C20.6326 16 20.7598 15.9473 20.8536 15.8536C20.9473 15.7598 21 15.6326 21 15.5C21 15.3674 20.9473 15.2402 20.8536 15.1464C20.7598 15.0527 20.6326 15 20.5 15H19.5ZM18.5 22.25C18.5 22.4489 18.421 22.6397 18.2803 22.7803C18.1397 22.921 17.9489 23 17.75 23C17.5511 23 17.3603 22.921 17.2197 22.7803C17.079 22.6397 17 22.4489 17 22.25C17 22.0511 17.079 21.8603 17.2197 21.7197C17.3603 21.579 17.5511 21.5 17.75 21.5C17.9489 21.5 18.1397 21.579 18.2803 21.7197C18.421 21.8603 18.5 22.0511 18.5 22.25ZM22.25 23C22.4489 23 22.6397 22.921 22.7803 22.7803C22.921 22.6397 23 22.4489 23 22.25C23 22.0511 22.921 21.8603 22.7803 21.7197C22.6397 21.579 22.4489 21.5 22.25 21.5C22.0511 21.5 21.8603 21.579 21.7197 21.7197C21.579 21.8603 21.5 22.0511 21.5 22.25C21.5 22.4489 21.579 22.6397 21.7197 22.7803C21.8603 22.921 22.0511 23 22.25 23ZM14 15.9C14 15.1309 14.3055 14.3932 14.8494 13.8494C15.3932 13.3055 16.1309 13 16.9 13H23.1C23.8691 13 24.6068 13.3055 25.1506 13.8494C25.6945 14.3932 26 15.1309 26 15.9V18H26.5C26.6326 18 26.7598 18.0527 26.8536 18.1464C26.9473 18.2402 27 18.3674 27 18.5C27 18.6326 26.9473 18.7598 26.8536 18.8536C26.7598 18.9473 26.6326 19 26.5 19H26V25.7C26 26.0448 25.863 26.3754 25.6192 26.6192C25.3754 26.863 25.0448 27 24.7 27H23.3C22.9552 27 22.6246 26.863 22.3808 26.6192C22.137 26.3754 22 26.0448 22 25.7V25H18V25.7C18 26.0448 17.863 26.3754 17.6192 26.6192C17.3754 26.863 17.0448 27 16.7 27H15.3C14.9552 27 14.6246 26.863 14.3808 26.6192C14.137 26.3754 14 26.0448 14 25.7V19H13.5C13.3674 19 13.2402 18.9473 13.1464 18.8536C13.0527 18.7598 13 18.6326 13 18.5C13 18.3674 13.0527 18.2402 13.1464 18.1464C13.2402 18.0527 13.3674 18 13.5 18H14V15.9ZM25 15.9C25 15.3961 24.7998 14.9128 24.4435 14.5565C24.0872 14.2002 23.6039 14 23.1 14H16.9C16.3961 14 15.9128 14.2002 15.5565 14.5565C15.2002 14.9128 15 15.3961 15 15.9V20H25V15.9ZM23 25V25.7C23 25.7394 23.0078 25.7784 23.0228 25.8148C23.0379 25.8512 23.06 25.8843 23.0879 25.9121C23.1157 25.94 23.1488 25.9621 23.1852 25.9772C23.2216 25.9922 23.2606 26 23.3 26H24.7C24.7394 26 24.7784 25.9922 24.8148 25.9772C24.8512 25.9621 24.8843 25.94 24.9121 25.9121C24.94 25.8843 24.9621 25.8512 24.9772 25.8148C24.9922 25.7784 25 25.7394 25 25.7V25H23ZM15 25V25.7C15 25.7394 15.0078 25.7784 15.0228 25.8148C15.0379 25.8512 15.06 25.8843 15.0879 25.9121C15.1157 25.94 15.1488 25.9621 15.1852 25.9772C15.2216 25.9922 15.2606 26 15.3 26H16.7C16.7394 26 16.7784 25.9922 16.8148 25.9772C16.8512 25.9621 16.8843 25.94 16.9121 25.9121C16.94 25.8843 16.9621 25.8512 16.9772 25.8148C16.9922 25.7784 17 25.7394 17 25.7V25H15ZM15 24H25V21H15V24Z" fill="#857878"/>
</svg>
