<svg width="18" height="18" viewBox="0 0 18 18" fill="none" xmlns="http://www.w3.org/2000/svg">
<path d="M16.15 17.2L9.85 10.925C9.35 11.3417 8.775 11.6667 8.125 11.9C7.475 12.1333 6.80833 12.25 6.125 12.25C4.40833 12.25 2.95833 11.6583 1.775 10.475C0.591667 9.29167 0 7.84167 0 6.125C0 4.425 0.591667 2.979 1.775 1.787C2.95833 0.595667 4.40833 0 6.125 0C7.825 0 9.26667 0.591667 10.45 1.775C11.6333 2.95833 12.225 4.40833 12.225 6.125C12.225 6.84167 12.1083 7.525 11.875 8.175C11.6417 8.825 11.325 9.39167 10.925 9.875L17.2 16.15L16.15 17.2ZM6.125 10.75C7.40833 10.75 8.496 10.3 9.388 9.4C10.2793 8.5 10.725 7.40833 10.725 6.125C10.725 4.84167 10.2793 3.75 9.388 2.85C8.496 1.95 7.40833 1.5 6.125 1.5C4.825 1.5 3.72933 1.95 2.838 2.85C1.946 3.75 1.5 4.84167 1.5 6.125C1.5 7.40833 1.946 8.5 2.838 9.4C3.72933 10.3 4.825 10.75 6.125 10.75Z" fill="#9E9E9E"/>
</svg>
