<svg width="32" height="36" viewBox="0 0 32 36" fill="none" xmlns="http://www.w3.org/2000/svg">
<rect y="4" width="32" height="32" rx="16" fill="#DAE2FD"/>
<path d="M14.0168 26.125L12.9085 24.2583L10.8085 23.7917L11.0127 21.6333L9.5835 20L11.0127 18.3667L10.8085 16.2083L12.9085 15.7417L14.0168 13.875L16.0002 14.7208L17.9835 13.875L19.0918 15.7417L21.1918 16.2083L20.9877 18.3667L22.4168 20L20.9877 21.6333L21.1918 23.7917L19.0918 24.2583L17.9835 26.125L16.0002 25.2792L14.0168 26.125ZM14.5127 24.6375L16.0002 23.9958L17.5168 24.6375L18.3335 23.2375L19.9377 22.8583L19.7918 21.225L20.871 20L19.7918 18.7458L19.9377 17.1125L18.3335 16.7625L17.4877 15.3625L16.0002 16.0042L14.4835 15.3625L13.6668 16.7625L12.0627 17.1125L12.2085 18.7458L11.1293 20L12.2085 21.225L12.0627 22.8875L13.6668 23.2375L14.5127 24.6375ZM15.3877 22.0708L18.6835 18.775L17.8668 17.9292L15.3877 20.4083L14.1335 19.1833L13.3168 20L15.3877 22.0708Z" fill="#4872D7"/>
</svg>
