<svg width="41" height="40" viewBox="0 0 41 40" fill="none" xmlns="http://www.w3.org/2000/svg">
<rect x="0.5" y="0.5" width="40" height="39" rx="19.5" fill="white"/>
<rect x="0.5" y="0.5" width="40" height="39" rx="19.5" stroke="#E2E2E2"/>
<path d="M13.5 23.116V14C13.5 13.3473 13.6877 12.8227 14.063 12.426C14.4383 12.0293 14.9463 11.7253 15.587 11.514C16.2277 11.3027 16.9727 11.1647 17.822 11.1C18.6713 11.0353 19.564 11.002 20.5 11C21.472 11 22.3813 11.033 23.228 11.099C24.0747 11.165 24.8157 11.3037 25.451 11.515C26.0863 11.7263 26.5867 12.03 26.952 12.426C27.3173 12.822 27.5 13.3467 27.5 14V23.116C27.5 23.9193 27.22 24.601 26.66 25.161C26.1007 25.7203 25.4193 26 24.616 26L25.808 27.192C25.9633 27.3473 26.001 27.5207 25.921 27.712C25.841 27.9033 25.691 27.9993 25.471 28C25.4057 28 25.3447 27.9887 25.288 27.966C25.2307 27.944 25.1797 27.9107 25.135 27.866L23.269 26H17.731L15.866 27.866C15.8207 27.9107 15.7697 27.944 15.713 27.966C15.6557 27.9887 15.5943 28 15.529 28C15.3123 28 15.1633 27.9043 15.082 27.713C15.0007 27.521 15.0373 27.3477 15.192 27.193L16.385 26C15.581 26 14.8993 25.72 14.34 25.16C13.78 24.6013 13.5 23.92 13.5 23.116ZM20.5 12C18.5407 12 17.1143 12.13 16.221 12.39C15.3277 12.6493 14.7887 13.0323 14.604 13.539H26.419C26.2457 13.0243 25.7113 12.6393 24.816 12.384C23.9207 12.128 22.482 12 20.5 12ZM14.5 19H20V14.539H14.5V19ZM24.616 20H14.5H26.5H24.616ZM21 19H26.5V14.539H21V19ZM17 23.616C17.318 23.616 17.5833 23.5093 17.796 23.296C18.0087 23.0827 18.1153 22.8173 18.116 22.5C18.1167 22.1827 18.01 21.9173 17.796 21.704C17.582 21.4907 17.3167 21.384 17 21.384C16.6833 21.384 16.418 21.4907 16.204 21.704C15.99 21.9173 15.8833 22.1827 15.884 22.5C15.8847 22.8173 15.9913 23.0827 16.204 23.296C16.4167 23.5093 16.682 23.616 17 23.616ZM24 23.616C24.318 23.616 24.5833 23.5093 24.796 23.296C25.0087 23.0827 25.1153 22.8173 25.116 22.5C25.1167 22.1827 25.01 21.9173 24.796 21.704C24.582 21.4907 24.3167 21.384 24 21.384C23.6833 21.384 23.418 21.4907 23.204 21.704C22.99 21.9173 22.8833 22.1827 22.884 22.5C22.8847 22.8173 22.9913 23.0827 23.204 23.296C23.4167 23.5093 23.682 23.616 24 23.616ZM16.385 25H24.615C25.1383 25 25.5833 24.8167 25.95 24.45C26.3167 24.0833 26.5 23.6383 26.5 23.115V20H14.5V23.116C14.5 23.6387 14.6833 24.0833 15.05 24.45C15.4167 24.8167 15.8617 25 16.385 25ZM20.5 13.539H26.419H14.604H20.5Z" fill="#3ACD27"/>
</svg>
