<svg width="40" height="40" viewBox="0 0 40 40" fill="none" xmlns="http://www.w3.org/2000/svg">
<rect x="0.5" y="0.5" width="39" height="39" rx="19.5" stroke="#E2E2E2"/>
<path d="M26.669 20.9663L22.803 19.5768L21.187 17.5478C21.0465 17.376 20.8695 17.2376 20.6688 17.1428C20.4682 17.0479 20.2489 16.9989 20.027 16.9993H16.029C15.7845 16.9993 15.5437 17.0591 15.3276 17.1734C15.1115 17.2877 14.9266 17.4532 14.789 17.6553L13.433 19.6468C13.1509 20.0614 13 20.5513 13 21.0528V24.9993C13 25.1319 13.0527 25.2591 13.1464 25.3528C13.2402 25.4466 13.3674 25.4993 13.5 25.4993H14.571C14.6798 25.9284 14.9285 26.309 15.2779 26.5809C15.6273 26.8527 16.0573 27.0004 16.5 27.0004C16.9427 27.0004 17.3727 26.8527 17.7221 26.5809C18.0715 26.309 18.3202 25.9284 18.429 25.4993H21.571C21.6798 25.9284 21.9285 26.309 22.2779 26.5809C22.6273 26.8527 23.0573 27.0004 23.5 27.0004C23.9427 27.0004 24.3727 26.8527 24.7221 26.5809C25.0715 26.309 25.3202 25.9284 25.429 25.4993H26.5C26.6326 25.4993 26.7598 25.4466 26.8536 25.3528C26.9473 25.2591 27 25.1319 27 24.9993V21.4368C27 21.3338 26.9682 21.2334 26.9089 21.1492C26.8497 21.065 26.7659 21.0011 26.669 20.9663ZM16.5 25.9993C16.3022 25.9993 16.1089 25.9406 15.9444 25.8308C15.78 25.7209 15.6518 25.5647 15.5761 25.382C15.5004 25.1993 15.4806 24.9982 15.5192 24.8042C15.5578 24.6102 15.653 24.432 15.7929 24.2922C15.9327 24.1523 16.1109 24.0571 16.3049 24.0185C16.4989 23.9799 16.7 23.9997 16.8827 24.0754C17.0654 24.1511 17.2216 24.2793 17.3315 24.4437C17.4414 24.6082 17.5 24.8015 17.5 24.9993C17.4996 25.2644 17.3941 25.5185 17.2067 25.706C17.0192 25.8934 16.7651 25.9989 16.5 25.9993ZM23.5 25.9993C23.3022 25.9993 23.1089 25.9406 22.9444 25.8308C22.78 25.7209 22.6518 25.5647 22.5761 25.382C22.5004 25.1993 22.4806 24.9982 22.5192 24.8042C22.5578 24.6102 22.653 24.432 22.7929 24.2922C22.9327 24.1523 23.1109 24.0571 23.3049 24.0185C23.4989 23.9799 23.7 23.9997 23.8827 24.0754C24.0654 24.1511 24.2216 24.2793 24.3315 24.4437C24.4414 24.6082 24.5 24.8015 24.5 24.9993C24.4996 25.2644 24.3941 25.5185 24.2067 25.706C24.0192 25.8934 23.7651 25.9989 23.5 25.9993ZM26 24.4993H25.429C25.3202 24.0702 25.0715 23.6896 24.7221 23.4177C24.3727 23.1458 23.9427 22.9982 23.5 22.9982C23.0573 22.9982 22.6273 23.1458 22.2779 23.4177C21.9285 23.6896 21.6798 24.0702 21.571 24.4993H18.429C18.3202 24.0702 18.0715 23.6896 17.7221 23.4177C17.3727 23.1458 16.9427 22.9982 16.5 22.9982C16.0573 22.9982 15.6273 23.1458 15.2779 23.4177C14.9285 23.6896 14.6798 24.0702 14.571 24.4993H14V21.0528C14 20.7517 14.0906 20.4577 14.26 20.2088L15.6155 18.2183C15.6613 18.1508 15.723 18.0956 15.7951 18.0574C15.8671 18.0193 15.9474 17.9993 16.029 17.9993H20.027C20.0998 17.9993 20.1716 18.0152 20.2376 18.0459C20.3036 18.0765 20.3621 18.1212 20.409 18.1768L22.109 20.3108C22.1668 20.3834 22.2437 20.4384 22.331 20.4698L26 21.7883V24.4993ZM24.2775 14.9993C24.2775 14.7341 24.3829 14.4797 24.5704 14.2922C24.7579 14.1046 25.0123 13.9993 25.2775 13.9993H27C26.8031 13.6557 26.508 13.3787 26.1527 13.2038C25.7973 13.029 25.3978 12.9643 25.0054 13.018C24.613 13.0717 24.2456 13.2414 23.9503 13.5054C23.655 13.7693 23.4453 14.1154 23.348 14.4993H20V15.4993H23.348C23.4453 15.8832 23.655 16.2293 23.9503 16.4932C24.2456 16.7572 24.613 16.9269 25.0054 16.9806C25.3978 17.0343 25.7973 16.9696 26.1527 16.7948C26.508 16.6199 26.8031 16.3429 27 15.9993H25.2775C25.0123 15.9993 24.7579 15.8939 24.5704 15.7064C24.3829 15.5189 24.2775 15.2645 24.2775 14.9993Z" fill="#857878"/>
</svg>
