<svg width="40" height="40" viewBox="0 0 40 40" fill="none" xmlns="http://www.w3.org/2000/svg">
<rect x="0.5" y="0.5" width="39" height="39" rx="19.5" stroke="#E2E2E2"/>
<path fill-rule="evenodd" clip-rule="evenodd" d="M17.2871 23.7265C17.3699 23.7046 17.4571 23.7043 17.5401 23.7258C17.6231 23.7472 17.6992 23.7897 17.7611 23.849L19.3856 25.407C19.4517 25.4705 19.499 25.551 19.5225 25.6396C19.546 25.7282 19.5446 25.8216 19.5186 25.9095L19.1641 27.1065C19.0757 27.4053 18.8963 27.6692 18.6511 27.8615L16.3296 29.6795C16.1747 29.8032 15.9969 29.895 15.8064 29.9496C15.6159 30.0041 15.4164 30.0204 15.2196 29.9975C15.0227 29.9745 14.8324 29.9128 14.6595 29.8158C14.4867 29.7189 14.3347 29.5886 14.2125 29.4326C14.0903 29.2766 14.0002 29.0979 13.9474 28.9069C13.8947 28.7158 13.8803 28.5162 13.9051 28.3196C13.93 28.123 13.9935 27.9332 14.0921 27.7613C14.1907 27.5894 14.3224 27.4387 14.4796 27.318L16.4241 25.795L16.9356 24.0675C16.96 23.9853 17.0052 23.9107 17.0667 23.851C17.1283 23.7913 17.2041 23.7484 17.2871 23.7265ZM17.6616 25.1385L17.3371 26.232C17.3076 26.3316 17.2478 26.4195 17.1661 26.4835L15.0961 28.1055C14.9952 28.1884 14.9308 28.3075 14.9166 28.4373C14.9024 28.5671 14.9395 28.6973 15.02 28.8C15.1005 28.9028 15.218 28.97 15.3475 28.9873C15.4769 29.0046 15.6079 28.9706 15.7126 28.8925L18.0341 27.074C18.116 27.01 18.1759 26.9221 18.2056 26.8225L18.4736 25.9175L17.6616 25.1385ZM22.0001 14C22.3979 14 22.7794 13.842 23.0607 13.5607C23.342 13.2794 23.5001 12.8978 23.5001 12.5C23.5001 12.1022 23.342 11.7206 23.0607 11.4393C22.7794 11.158 22.3979 11 22.0001 11C21.6022 11 21.2207 11.158 20.9394 11.4393C20.6581 11.7206 20.5001 12.1022 20.5001 12.5C20.5001 12.8978 20.6581 13.2794 20.9394 13.5607C21.2207 13.842 21.6022 14 22.0001 14ZM22.0001 15C22.6631 15 23.299 14.7366 23.7678 14.2678C24.2367 13.7989 24.5001 13.163 24.5001 12.5C24.5001 11.837 24.2367 11.2011 23.7678 10.7322C23.299 10.2634 22.6631 10 22.0001 10C21.337 10 20.7011 10.2634 20.2323 10.7322C19.7635 11.2011 19.5001 11.837 19.5001 12.5C19.5001 13.163 19.7635 13.7989 20.2323 14.2678C20.7011 14.7366 21.337 15 22.0001 15Z" fill="#857878"/>
<path fill-rule="evenodd" clip-rule="evenodd" d="M18.8685 15.182C19.5825 14.917 20.3495 14.932 21.038 15.2885C21.693 15.627 22.1365 16.2 22.4155 16.799C22.5199 17.023 22.617 17.2328 22.707 17.4285C22.927 17.9055 23.107 18.297 23.2795 18.6385C23.5225 19.122 23.7005 19.4055 23.8575 19.5885C23.9925 19.745 24.108 19.8245 24.257 19.8825C24.432 19.9515 24.7185 20.014 25.228 20.0295C25.5984 20.0406 25.9492 20.1983 26.2033 20.468C26.4573 20.7378 26.5939 21.0974 26.5828 21.4677C26.5717 21.8381 26.414 22.1889 26.1442 22.443C25.8745 22.697 25.5149 22.8336 25.1445 22.8225C24.466 22.802 23.8275 22.715 23.24 22.4855C22.626 22.2455 22.1415 21.879 21.7375 21.408C21.6895 21.3521 21.6428 21.2951 21.5975 21.237L21.396 22.289L23.5795 24.4435C23.719 24.5805 23.8275 24.7455 23.899 24.9275L25.141 28.0925C25.208 28.2633 25.2408 28.4456 25.2373 28.629C25.2339 28.8124 25.1943 28.9934 25.1209 29.1615C25.0475 29.3297 24.9418 29.4817 24.8096 29.609C24.6775 29.7362 24.5216 29.8362 24.3508 29.9032C24.18 29.9702 23.9977 30.003 23.8143 29.9995C23.6308 29.9961 23.4499 29.9565 23.2817 29.8831C23.1136 29.8097 22.9616 29.704 22.8343 29.5718C22.707 29.4397 22.607 29.2838 22.54 29.113L21.406 26.2245L17.4765 22.347C17.3261 22.1983 17.2113 22.0174 17.1408 21.818C17.0704 21.6185 17.046 21.4057 17.0695 21.1955L17.232 19.7605C16.786 20.337 16.411 21.0305 16.149 21.8505C16.0364 22.2035 15.7881 22.4973 15.4588 22.6672C15.1296 22.8372 14.7463 22.8694 14.3933 22.7567C14.0403 22.6441 13.7465 22.3958 13.5765 22.0666C13.4066 21.7373 13.3744 21.354 13.487 21.001C14.371 18.232 16.3705 16.1465 18.852 15.1885L18.855 15.187L18.8685 15.182ZM19.2185 16.119L19.2105 16.122C17.0195 16.9685 15.2335 18.8175 14.44 21.305C14.4242 21.3547 14.4183 21.407 14.4226 21.4589C14.427 21.5109 14.4415 21.5615 14.4654 21.6078C14.4893 21.6542 14.5221 21.6953 14.562 21.729C14.6018 21.7626 14.6479 21.7881 14.6975 21.804C14.7472 21.8198 14.7995 21.8258 14.8515 21.8214C14.9034 21.817 14.954 21.8025 15.0004 21.7786C15.0467 21.7547 15.0879 21.7219 15.1215 21.682C15.1552 21.6422 15.1807 21.5962 15.1965 21.5465C15.6935 19.99 16.559 18.8125 17.5765 17.9815C17.6535 17.9187 17.7474 17.8802 17.8463 17.871C17.9452 17.8618 18.0446 17.8823 18.1319 17.9298C18.2191 17.9774 18.2902 18.0498 18.3361 18.1379C18.382 18.226 18.4006 18.3258 18.3895 18.4245L18.0635 21.308C18.057 21.3677 18.064 21.428 18.084 21.4847C18.104 21.5413 18.1365 21.5926 18.179 21.635L22.184 25.587C22.2344 25.6367 22.2725 25.6943 22.2985 25.76L23.471 28.748C23.4894 28.7974 23.5174 28.8427 23.5535 28.8812C23.5896 28.9197 23.6329 28.9507 23.6811 28.9722C23.7292 28.9937 23.7812 29.0055 23.8339 29.0067C23.8867 29.0079 23.9391 28.9986 23.9882 28.9794C24.0373 28.9601 24.0821 28.9312 24.1199 28.8945C24.1578 28.8577 24.1879 28.8138 24.2085 28.7652C24.2292 28.7167 24.2399 28.6645 24.2402 28.6118C24.2405 28.559 24.2302 28.5067 24.21 28.458L22.968 25.293C22.9478 25.2412 22.917 25.1942 22.8775 25.155L20.5035 22.813C20.445 22.7553 20.4016 22.684 20.3772 22.6055C20.3528 22.527 20.3481 22.4437 20.3635 22.363L20.854 19.8005C20.8735 19.6986 20.9241 19.6052 20.999 19.5334C21.0738 19.4615 21.1692 19.4148 21.2718 19.3995C21.3745 19.3843 21.4793 19.4014 21.5718 19.4484C21.6643 19.4955 21.7399 19.5701 21.788 19.662C22.013 20.0905 22.238 20.457 22.496 20.757C22.804 21.1155 23.1565 21.379 23.604 21.554C24.044 21.726 24.5565 21.804 25.174 21.8225C25.2267 21.8251 25.2794 21.8171 25.329 21.7991C25.3786 21.7811 25.4241 21.7534 25.4628 21.7176C25.5016 21.6818 25.5328 21.6386 25.5547 21.5906C25.5765 21.5426 25.5886 21.4907 25.5902 21.438C25.5918 21.3852 25.5829 21.3327 25.564 21.2835C25.545 21.2342 25.5165 21.1893 25.4799 21.1512C25.4434 21.1131 25.3997 21.0827 25.3513 21.0617C25.3029 21.0407 25.2508 21.0296 25.198 21.029C24.628 21.012 24.216 20.9405 23.893 20.814C23.578 20.691 23.33 20.509 23.099 20.2395C22.861 19.963 22.64 19.5925 22.3865 19.0885C22.1848 18.6801 21.9897 18.2683 21.8015 17.8535L21.799 17.8475C21.7094 17.6518 21.6127 17.443 21.509 17.221C21.294 16.76 20.984 16.386 20.579 16.1765C20.165 15.9625 19.6945 15.9425 19.2185 16.119Z" fill="#857878"/>
</svg>
